<svg version="1.1" id="Layer_1" xmlns="http://www.w3.org/2000/svg" xmlns:xlink="http://www.w3.org/1999/xlink" x="0px" y="0px"
	 width="100%" viewBox="0 0 655 655" enable-background="new 0 0 655 655" xml:space="preserve">
<path fill="#FFFFFF" opacity="1.000000" stroke="none" 
	d="
M362.000000,656.000000 
	C241.333359,656.000000 121.166710,656.000000 1.000048,656.000000 
	C1.000032,437.666718 1.000032,219.333450 1.000016,1.000136 
	C219.333237,1.000091 437.666473,1.000091 655.999756,1.000045 
	C655.999878,219.333191 655.999878,437.666382 655.999939,655.999756 
	C558.166687,656.000000 460.333344,656.000000 362.000000,656.000000 
M134.204468,123.759712 
	C133.986877,124.017113 133.769272,124.274513 133.484589,124.594734 
	C133.484589,124.594734 133.517456,124.508720 132.909195,124.772392 
	C129.092621,128.632309 125.276054,132.492249 121.414543,136.479874 
	C121.414543,136.479874 121.298317,136.549316 120.791084,136.898834 
	C119.683975,138.422714 118.576859,139.946579 117.501122,141.568817 
	C117.501122,141.568817 117.398163,141.576675 116.911903,141.982224 
	C115.765732,143.838226 114.619560,145.694214 113.920067,147.684097 
	C113.920067,147.684097 113.463661,147.588577 112.979240,148.027420 
	C103.384956,164.386139 98.439842,182.062332 97.706596,201.911942 
	C97.658516,203.408203 97.568481,204.904465 97.568367,206.400726 
	C97.562187,287.783356 97.559937,369.165955 97.581429,450.548584 
	C97.582085,453.031311 97.837936,455.514008 97.760414,458.649445 
	C98.125824,462.275635 98.326103,465.927490 98.884422,469.523743 
	C101.724243,487.815491 107.512314,504.906219 119.901649,519.121460 
	C119.901649,519.121460 119.547333,519.344849 119.729942,519.897156 
	C120.136002,520.292542 120.542061,520.687988 120.993767,521.012512 
	C120.993767,521.012512 120.917747,521.048889 121.115669,521.693115 
	C125.063690,525.485962 129.011703,529.278748 132.989334,533.001343 
	C132.989334,533.001343 132.926712,533.044739 133.263550,533.623169 
	C136.528549,535.921936 139.677567,538.410645 143.077850,540.488037 
	C161.571945,551.786865 182.029739,555.671448 203.329605,555.715210 
	C261.146088,555.833984 318.963104,555.829773 376.779633,555.725769 
	C406.926453,555.671509 437.088745,555.816040 467.212860,554.873962 
	C483.652222,554.359802 499.369263,549.680603 513.412109,540.128601 
	C513.412109,540.128601 513.446716,540.514465 514.083069,540.313232 
	C515.862793,539.059570 517.642456,537.805969 519.333923,536.334351 
	C519.333923,536.334351 519.486755,536.513062 520.081604,536.281189 
	C521.396179,535.191895 522.710815,534.102661 524.001099,532.997559 
	C524.001099,532.997559 524.011841,533.023682 524.596008,532.839172 
	C525.045044,532.225281 525.494019,531.611389 526.320618,530.446411 
	C528.877197,527.961853 531.433716,525.477234 534.620972,523.000854 
	C535.257324,522.191406 535.893677,521.381897 536.528137,520.462036 
	C536.528137,520.462036 536.636169,520.439514 537.149109,520.070923 
	C540.363831,515.222595 544.178345,510.658234 546.641724,505.454254 
	C549.731995,498.926025 551.714417,491.873383 554.073975,485.045105 
	C554.073975,485.045105 554.098694,485.143097 554.615967,484.935608 
	C554.754272,483.952148 554.892578,482.968719 555.124817,481.609985 
	C555.124817,481.609985 555.083008,481.225403 555.774963,480.833496 
	C555.822815,479.560791 555.870667,478.288055 556.088135,476.639984 
	C556.088135,476.639984 556.087708,476.228088 556.760803,475.906342 
	C557.506409,463.605286 558.252014,451.304199 559.189636,438.118713 
	C559.126038,435.411530 559.062439,432.704376 559.228760,429.224884 
	C559.238892,408.442505 559.281006,387.660065 559.247131,366.877777 
	C559.227112,354.585815 559.086792,342.294098 559.193726,329.082886 
	C559.131165,323.387177 559.068604,317.691437 559.230103,311.457397 
	C559.154968,310.306366 559.079895,309.155334 559.195923,307.111786 
	C559.131226,304.073883 559.066589,301.036011 559.230530,297.225311 
	C559.154419,286.483887 559.078308,275.742493 559.195007,264.128326 
	C559.129272,261.751221 559.063599,259.374084 559.226562,256.232941 
	C559.151001,251.823746 559.075378,247.414566 559.194336,242.089676 
	C559.129333,237.392242 559.064331,232.694824 559.231506,227.231094 
	C559.153503,222.488480 559.075439,217.745865 559.192322,212.144104 
	C559.131348,210.096222 559.070374,208.048325 559.234192,205.276260 
	C559.059387,182.572006 553.830933,161.378601 540.197693,142.756104 
	C540.197693,142.756104 540.468567,142.558105 540.239563,141.923737 
	C534.503967,135.937103 528.768433,129.950470 523.000000,124.000000 
	C523.000000,124.000000 523.035095,123.965607 522.753479,123.459351 
	C522.255920,123.179901 521.758301,122.900444 521.164429,122.818283 
	C521.164429,122.818283 521.320129,122.663483 521.035706,122.145874 
	C520.369385,121.749588 519.703003,121.353302 519.000000,121.000305 
	C519.000000,121.000305 519.041260,120.960526 518.715088,120.432579 
	C517.824036,119.935936 516.932922,119.439293 516.007874,119.003914 
	C516.007874,119.003914 516.056885,118.952736 515.687805,118.420090 
	C514.557861,117.805359 513.427979,117.190636 512.133423,116.811630 
	C512.133423,116.811630 512.345764,116.617790 511.942902,116.095413 
	C508.626678,114.493370 505.310455,112.891335 501.557159,110.974327 
	C501.377625,110.969635 501.198120,110.964951 500.507050,110.492638 
	C497.337036,109.413269 494.166992,108.333908 490.527985,106.994713 
	C490.349609,107.005875 490.171265,107.017044 489.396759,106.638206 
	C485.930267,106.126251 482.463745,105.614296 478.263428,104.721321 
	C475.849457,104.506332 473.435516,104.291344 470.648285,103.900383 
	C470.648285,103.900383 470.235870,103.914795 469.879456,103.224030 
	C465.585907,102.866318 461.292358,102.508606 456.252197,101.957001 
	C455.487732,102.002342 454.723236,102.047691 453.193359,101.866226 
	C368.268707,101.898727 283.343597,101.794861 198.419846,102.088928 
	C183.061279,102.142120 167.977158,105.027626 153.424942,111.961227 
	C153.285004,112.072342 153.145050,112.183449 152.322144,112.417870 
	C147.775375,115.179184 143.228592,117.940498 138.810135,120.764824 
	C138.810135,120.764824 138.779129,120.625267 138.197479,120.768700 
	C137.766830,121.158951 137.336166,121.549194 136.982071,121.987633 
	C136.982071,121.987633 136.944733,121.905220 136.360413,122.040016 
	C135.788834,122.578079 135.217255,123.116142 134.814301,123.844170 
	C134.814301,123.844170 134.701614,123.616524 134.204468,123.759712 
z"/>
<path fill="#1A7146" opacity="1.000000" stroke="none" 
	d="
M489.992889,107.028214 
	C490.171265,107.017044 490.349609,107.005875 490.841431,107.456207 
	C494.442780,108.931877 497.730713,109.946068 501.018616,110.960266 
	C501.198120,110.964951 501.377625,110.969635 501.833984,111.469032 
	C505.522430,113.515091 508.934113,115.066437 512.345764,116.617790 
	C512.345764,116.617790 512.133423,116.811630 512.240784,117.062881 
	C513.584412,117.860336 514.820618,118.406532 516.056885,118.952736 
	C516.056885,118.952736 516.007874,119.003914 516.063599,119.325661 
	C517.093323,120.085114 518.067322,120.522820 519.041260,120.960526 
	C519.041260,120.960526 519.000000,121.000305 519.059937,121.325653 
	C519.853271,121.988495 520.586670,122.325989 521.320129,122.663483 
	C521.320129,122.663483 521.164429,122.818283 521.264404,123.035507 
	C521.921265,123.490356 522.478149,123.727982 523.035095,123.965607 
	C523.035095,123.965607 523.000000,124.000000 523.038086,124.329033 
	C526.706970,128.594772 530.285095,132.581894 533.989136,136.448318 
	C536.040100,138.589203 538.301819,140.528137 540.468567,142.558105 
	C540.468567,142.558105 540.197693,142.756104 540.222534,143.050629 
	C540.904663,144.821426 541.438538,146.368317 542.237915,147.763123 
	C551.336548,163.639465 556.902161,180.524490 557.005249,199.377975 
	C557.333252,201.184708 557.664612,202.602539 557.997620,204.346466 
	C558.000305,205.107391 558.001343,205.542191 557.724121,206.239151 
	C557.630493,208.672821 557.815247,210.844345 558.000000,213.480911 
	C558.000000,218.625351 558.000000,223.304733 557.706055,228.279999 
	C557.608032,233.390015 557.804016,238.204163 558.000000,243.480927 
	C558.000000,248.289551 558.000000,252.635574 557.717651,257.252380 
	C557.624146,260.022675 557.813049,262.522217 558.001221,265.489014 
	C558.000305,276.631866 558.000122,287.307373 557.998657,298.403656 
	C557.998230,301.889435 557.999084,304.954498 558.000000,308.415466 
	C558.000793,309.867340 558.001648,310.923309 557.746765,312.208191 
	C557.376831,314.314423 557.100159,316.198792 557.181885,318.067505 
	C557.356140,322.055420 557.716064,326.035187 558.000000,330.485809 
	C558.000000,338.963562 558.000000,346.973846 557.999268,355.242065 
	C557.998962,355.671967 557.999451,355.843903 558.000000,356.483521 
	C557.999695,374.961121 557.999390,392.971069 557.739075,411.195953 
	C557.652222,412.613770 557.825256,413.816681 557.999146,415.484375 
	C558.000061,420.626648 558.000183,425.304108 557.714783,430.259613 
	C557.619568,433.364532 557.809753,436.191406 558.000000,439.485413 
	C558.000000,445.961823 557.999939,451.971100 557.738037,458.191040 
	C557.320801,459.271179 557.165344,460.140717 557.007446,461.468994 
	C556.699280,466.694519 556.393494,471.461304 556.087708,476.228088 
	C556.087708,476.228088 556.088135,476.639984 555.737366,477.086182 
	C555.285400,478.763367 555.184204,479.994385 555.083008,481.225403 
	C555.083008,481.225403 555.124817,481.609985 554.801392,482.012573 
	C554.351562,483.324463 554.225098,484.233765 554.098694,485.143097 
	C554.098694,485.143097 554.073975,485.045105 553.814026,485.228607 
	C549.252197,494.446930 544.964844,503.488708 540.639465,512.512329 
	C539.360168,515.181091 537.973572,517.798523 536.636169,520.439514 
	C536.636169,520.439514 536.528137,520.462036 536.185547,520.428955 
	C535.225403,521.261536 534.607849,522.127075 533.990295,522.992676 
	C531.433716,525.477234 528.877197,527.961853 525.814148,530.767700 
	C524.875732,531.733887 524.443787,532.378784 524.011841,533.023682 
	C524.011841,533.023682 524.001099,532.997559 523.644104,533.004761 
	C522.020325,534.178955 520.753540,535.346008 519.486755,536.513062 
	C519.486755,536.513062 519.333923,536.334351 519.020996,536.298584 
	C516.954224,537.680054 515.200500,539.097229 513.446716,540.514465 
	C513.446716,540.514465 513.412109,540.128601 513.035950,540.187622 
	C510.530670,541.122864 508.313141,541.831665 506.286621,542.902100 
	C492.039612,550.427551 476.494751,553.776489 460.774414,553.791077 
	C370.248688,553.875000 279.720703,553.542419 189.197632,552.827576 
	C170.245346,552.677917 152.842148,545.989319 137.313324,534.856323 
	C136.061569,533.958923 134.398590,533.635071 132.926727,533.044739 
	C132.926712,533.044739 132.989334,533.001343 132.956909,532.686157 
	C128.922241,528.596924 124.919998,524.822876 120.917755,521.048889 
	C120.917747,521.048889 120.993767,521.012512 120.951950,520.717712 
	C120.455872,520.063538 120.001610,519.704224 119.547333,519.344849 
	C119.547333,519.344849 119.901649,519.121460 119.843735,518.885193 
	C119.302597,517.629944 118.940186,516.529663 118.317863,515.604187 
	C109.986862,503.214722 104.203003,489.764984 101.552162,475.046875 
	C100.533981,469.393677 99.839172,463.682220 98.998199,457.528839 
	C98.999931,371.705200 99.000481,286.350037 99.011627,200.578415 
	C99.347168,198.544388 99.629906,196.916977 100.003906,195.310822 
	C102.540016,184.419418 104.871178,173.472931 107.742012,162.670044 
	C109.115654,157.501083 111.523972,152.607101 113.463669,147.588577 
	C113.463661,147.588577 113.920067,147.684097 114.067627,147.657257 
	C115.276184,145.612518 116.337181,143.594604 117.398170,141.576675 
	C117.398163,141.576675 117.501122,141.568817 117.854523,141.590103 
	C119.238060,139.924026 120.268181,138.236664 121.298309,136.549316 
	C121.298317,136.549316 121.414543,136.479874 121.781433,136.528076 
	C125.938026,132.553757 129.727737,128.531235 133.517456,124.508728 
	C133.517456,124.508720 133.484589,124.594734 133.822388,124.599640 
	C134.340668,124.275215 134.521149,123.945869 134.701614,123.616524 
	C134.701614,123.616524 134.814301,123.844170 135.083557,123.821381 
	C135.883469,123.167465 136.414093,122.536346 136.944733,121.905220 
	C136.944733,121.905220 136.982071,121.987633 137.272461,121.950508 
	C137.968262,121.484009 138.373703,121.054634 138.779129,120.625267 
	C138.779129,120.625267 138.810135,120.764824 139.121857,120.800339 
	C143.957428,117.988747 148.481262,115.141647 153.005112,112.294548 
	C153.145050,112.183449 153.285004,112.072342 153.894806,112.211334 
	C162.241882,110.307587 170.119110,108.153725 178.294922,105.980515 
	C179.064362,105.643791 179.535217,105.326401 180.433990,105.007812 
	C182.573990,105.002220 184.286118,104.997833 186.217499,104.889687 
	C186.712067,104.590843 186.895706,104.330971 187.451630,104.006058 
	C191.943069,104.001953 195.970566,103.998123 200.435699,103.997078 
	C202.915039,103.997765 204.956757,103.995667 207.467224,103.995277 
	C229.956909,103.995773 251.977844,103.994553 274.249390,103.994766 
	C274.667084,103.995262 274.834137,103.994331 275.455292,103.995193 
	C278.940063,103.995811 281.970764,103.994644 285.438721,103.995651 
	C287.916687,103.996338 289.957367,103.994850 292.466827,103.995056 
	C305.290863,103.995399 317.646088,103.994026 330.375977,103.994957 
	C331.499939,103.995682 332.249237,103.994118 333.467285,103.994507 
	C369.291260,103.995491 404.646515,103.994522 440.469086,103.995682 
	C446.292572,103.996101 451.648743,103.994385 457.470032,103.995766 
	C462.035431,103.970833 466.135651,103.942818 470.235870,103.914795 
	C470.235870,103.914795 470.648285,103.900383 471.092224,104.255447 
	C474.031830,105.071327 476.527496,105.532158 479.423065,106.002708 
	C483.212921,106.351028 486.602905,106.689621 489.992889,107.028214 
M317.452942,375.857086 
	C317.294250,375.469238 317.021027,375.355591 316.585846,375.420135 
	C316.585846,375.420135 316.498169,375.358795 316.684753,374.596741 
	C315.757477,370.968109 314.063934,367.347229 314.027191,363.709625 
	C313.785919,339.808685 313.921844,315.904053 313.885986,292.000732 
	C313.878235,286.830383 315.199860,282.246246 318.864716,278.429077 
	C319.594910,277.668518 319.914185,276.513428 320.541687,275.480560 
	C320.541687,275.480560 320.634918,275.385895 321.227692,275.644165 
	C321.793884,275.439941 322.360077,275.235687 323.781891,274.999542 
	C326.898560,274.667175 330.014435,274.055481 333.132050,274.046387 
	C359.599640,273.968994 386.067627,274.025818 412.535217,273.948212 
	C414.389191,273.942749 416.240936,273.186188 418.510864,272.101196 
	C418.606171,268.310272 418.776520,264.519470 418.783661,260.728363 
	C418.813293,244.995834 413.651245,237.692734 398.681732,231.868988 
	C396.954773,231.578934 395.228271,231.038895 393.500824,231.035995 
	C362.893585,230.984726 332.286194,230.998291 301.678864,230.998993 
	C289.203033,230.999283 276.726807,230.959045 264.252136,231.079285 
	C263.158203,231.089828 262.074524,232.160599 260.250153,233.056732 
	C247.337982,234.990631 239.709183,242.609711 235.784103,255.438812 
	C235.522903,257.195648 235.035248,258.952271 235.033600,260.709351 
	C234.991547,305.270325 234.999969,349.831299 235.002701,394.392303 
	C235.002777,395.721191 235.017365,397.051483 235.113480,398.374756 
	C235.118195,398.439667 235.973969,398.442780 236.830597,399.120239 
	C239.108963,411.629913 247.122940,418.389648 259.272186,421.996552 
	C260.474457,422.329163 261.676392,422.951233 262.878998,422.952545 
	C307.912384,423.001129 352.945831,423.008179 397.979065,422.914642 
	C399.314758,422.911865 400.648132,421.770691 402.569916,420.743408 
	C413.935852,416.224792 418.766052,409.114594 418.816345,396.826233 
	C418.835968,392.035065 418.853607,387.243896 418.830170,381.591400 
	C417.097931,381.061218 415.367401,380.075897 413.633148,380.069244 
	C388.016541,379.970612 362.399231,380.055450 336.782623,379.955963 
	C331.837097,379.936768 326.893890,379.316589 321.581299,378.400970 
	C320.588898,378.141968 319.596527,377.882965 318.441467,377.505127 
	C318.441467,377.505127 318.324554,377.341064 318.451721,376.881470 
	C318.451721,376.881470 318.114105,376.547943 318.114105,376.547943 
	C318.114105,376.547943 317.656311,376.675812 317.446014,376.551270 
	C317.446014,376.551270 317.325745,376.338440 317.452942,375.857086 
M332.326721,362.254089 
	C332.663513,362.429108 333.000305,362.604126 333.201263,362.804993 
	C333.201263,362.804993 333.261780,362.680664 333.181702,363.445648 
	C334.897278,364.126251 336.612823,364.806885 338.222076,365.642700 
	C338.222076,365.642700 338.163483,365.463928 338.481659,366.285278 
	C339.248840,366.518372 340.015625,366.953827 340.783234,366.955139 
	C364.005035,366.995544 387.227020,367.017700 410.448547,366.933289 
	C411.769714,366.928467 413.087524,365.996155 414.801453,365.043579 
	C417.606232,362.312439 420.411041,359.581329 424.072205,356.596985 
	C424.378296,355.698669 424.948669,354.801117 424.951385,353.901886 
	C425.004761,336.127960 425.024902,318.353638 424.926178,300.580109 
	C424.918976,299.279724 423.955200,297.984619 423.014984,296.275360 
	C420.676422,293.812347 418.337891,291.349335 415.787384,288.113159 
	C414.605621,287.741791 413.424713,287.049591 412.241943,287.046387 
	C388.804108,286.982819 365.365967,286.976044 341.928314,287.062897 
	C340.675171,287.067566 339.425476,287.997498 338.154053,288.315948 
	C338.154053,288.315948 338.313812,288.402863 337.634033,288.209351 
	C337.116699,288.570587 336.599396,288.931824 335.869873,289.706238 
	C335.438812,289.835175 335.007721,289.964142 333.919067,290.260132 
	C333.638824,290.596069 333.358582,290.932007 332.925385,291.758728 
	C332.420990,292.208344 331.916595,292.657959 330.769257,293.322845 
	C330.543488,293.928986 330.317719,294.535156 330.053131,295.053589 
	C330.053131,295.053589 330.145203,295.080383 329.323120,295.183594 
	C328.880859,296.151733 328.056702,297.118347 328.052795,298.088226 
	C327.976501,317.052460 327.920166,336.017914 328.125397,354.980225 
	C328.143646,356.664246 329.991455,358.328461 331.001526,360.000305 
	C331.001526,360.000305 330.996796,360.013184 331.073700,360.641693 
	C331.498169,361.029999 331.922638,361.418274 332.173309,361.845551 
	C332.173309,361.845551 332.206787,361.670563 332.326721,362.254089 
z"/>
<path fill="#1D663F" opacity="1.000000" stroke="none" 
	d="
M285.001465,103.993469 
	C281.970764,103.994644 278.940063,103.995811 275.439026,103.745071 
	C274.810974,103.229149 274.653259,102.965118 274.495544,102.701088 
	C274.329956,103.131836 274.164368,103.562584 273.998779,103.993332 
	C251.977844,103.994553 229.956909,103.995773 207.209930,103.716309 
	C204.321960,103.621841 202.160019,103.808060 199.998077,103.994293 
	C195.970566,103.998123 191.943069,104.001953 187.235138,104.112732 
	C186.284164,104.416405 186.098663,104.674339 185.998230,104.993454 
	C184.286118,104.997833 182.573990,105.002220 180.135193,105.025955 
	C178.937790,105.363487 178.467072,105.681671 177.996338,105.999863 
	C170.119110,108.153725 162.241882,110.307587 154.162384,112.196045 
	C167.977158,105.027626 183.061279,102.142120 198.419846,102.088928 
	C283.343597,101.794861 368.268707,101.898727 453.275665,102.257645 
	C448.905884,103.097229 444.453827,103.545395 440.001740,103.993561 
	C404.646515,103.994522 369.291260,103.995491 333.283844,103.745850 
	C331.754883,103.661041 330.878113,103.826843 330.001343,103.992661 
	C317.646088,103.994026 305.290863,103.995399 292.209625,103.716187 
	C289.322906,103.621559 287.162201,103.807518 285.001465,103.993469 
z"/>
<path fill="#1D663F" opacity="1.000000" stroke="none" 
	d="
M133.095139,533.333984 
	C134.398590,533.635071 136.061569,533.958923 137.313324,534.856323 
	C152.842148,545.989319 170.245346,552.677917 189.197632,552.827576 
	C279.720703,553.542419 370.248688,553.875000 460.774414,553.791077 
	C476.494751,553.776489 492.039612,550.427551 506.286621,542.902100 
	C508.313141,541.831665 510.530670,541.122864 513.032715,540.381348 
	C499.369263,549.680603 483.652222,554.359802 467.212860,554.873962 
	C437.088745,555.816040 406.926453,555.671509 376.779633,555.725769 
	C318.963104,555.829773 261.146088,555.833984 203.329605,555.715210 
	C182.029739,555.671448 161.571945,551.786865 143.077850,540.488037 
	C139.677567,538.410645 136.528549,535.921936 133.095139,533.333984 
z"/>
<path fill="#0E542B" opacity="1.000000" stroke="none" 
	d="
M99.001038,200.994873 
	C99.000481,286.350037 98.999931,371.705200 98.742668,457.528778 
	C98.315575,457.997040 98.145195,457.996857 97.974808,457.996704 
	C97.837936,455.514008 97.582085,453.031311 97.581429,450.548584 
	C97.559937,369.165955 97.562187,287.783356 97.568367,206.400726 
	C97.568481,204.904465 97.658516,203.408203 98.095093,201.456299 
	C98.656067,200.998718 98.828552,200.996796 99.001038,200.994873 
z"/>
<path fill="#1E7047" opacity="1.000000" stroke="none" 
	d="
M557.999023,410.981018 
	C557.999390,392.971069 557.999695,374.961121 558.166138,356.390228 
	C558.221497,355.547577 558.110718,355.265839 558.000000,354.984100 
	C558.000000,346.973846 558.000000,338.963562 558.250122,330.480957 
	C558.667053,330.006439 558.833801,330.004333 559.000610,330.002258 
	C559.086792,342.294098 559.227112,354.585815 559.247131,366.877777 
	C559.281006,387.660065 559.238892,408.442505 558.864136,429.608032 
	C558.499512,429.991150 558.000244,429.981598 558.000244,429.981598 
	C558.000183,425.304108 558.000061,420.626648 558.001587,415.080261 
	C558.001770,413.134552 558.000427,412.057800 557.999023,410.981018 
z"/>
<path fill="#1E7047" opacity="1.000000" stroke="none" 
	d="
M558.002441,205.977005 
	C558.001343,205.542191 558.000305,205.107391 558.001465,203.956390 
	C557.671997,201.823166 557.340271,200.406113 557.008545,198.989075 
	C556.902161,180.524490 551.336548,163.639465 542.237915,147.763123 
	C541.438538,146.368317 540.904663,144.821426 540.373047,142.976532 
	C553.830933,161.378601 559.059387,182.572006 558.869995,205.633377 
	C558.338074,205.985992 558.170288,205.981506 558.002441,205.977005 
z"/>
<path fill="#1D663F" opacity="1.000000" stroke="none" 
	d="
M97.867615,458.323059 
	C98.145195,457.996857 98.315575,457.997040 98.741486,457.997253 
	C99.839172,463.682220 100.533981,469.393677 101.552162,475.046875 
	C104.203003,489.764984 109.986862,503.214722 118.317863,515.604187 
	C118.940186,516.529663 119.302597,517.629944 119.679642,519.015320 
	C107.512314,504.906219 101.724243,487.815491 98.884422,469.523743 
	C98.326103,465.927490 98.125824,462.275635 97.867615,458.323059 
z"/>
<path fill="#1D663F" opacity="1.000000" stroke="none" 
	d="
M99.011627,200.578415 
	C98.828552,200.996796 98.656067,200.998718 98.224854,201.003143 
	C98.439842,182.062332 103.384956,164.386139 113.221451,147.807999 
	C111.523972,152.607101 109.115654,157.501083 107.742012,162.670044 
	C104.871178,173.472931 102.540016,184.419418 100.003906,195.310822 
	C99.629906,196.916977 99.347168,198.544388 99.011627,200.578415 
z"/>
<path fill="#1D663F" opacity="1.000000" stroke="none" 
	d="
M536.892639,520.255249 
	C537.973572,517.798523 539.360168,515.181091 540.639465,512.512329 
	C544.964844,503.488708 549.252197,494.446930 553.864502,485.229614 
	C551.714417,491.873383 549.731995,498.926025 546.641724,505.454254 
	C544.178345,510.658234 540.363831,515.222595 536.892639,520.255249 
z"/>
<path fill="#1E7047" opacity="1.000000" stroke="none" 
	d="
M556.424255,476.067200 
	C556.393494,471.461304 556.699280,466.694519 557.269409,461.259583 
	C557.689087,459.721069 557.844482,458.850739 557.999878,457.980408 
	C557.999939,451.971100 558.000000,445.961823 558.249390,439.480591 
	C558.498779,439.008636 558.997620,439.003143 558.997620,439.003143 
	C558.252014,451.304199 557.506409,463.605286 556.424255,476.067200 
z"/>
<path fill="#1E7047" opacity="1.000000" stroke="none" 
	d="
M558.000000,297.982910 
	C558.000122,287.307373 558.000305,276.631866 558.251221,265.482727 
	C558.668762,265.006439 558.835510,265.003754 559.002258,265.001068 
	C559.078308,275.742493 559.154419,286.483887 558.865723,297.608612 
	C558.333984,297.988892 558.166992,297.985901 558.000000,297.982910 
z"/>
<path fill="#1E7047" opacity="1.000000" stroke="none" 
	d="
M540.354065,142.240921 
	C538.301819,140.528137 536.040100,138.589203 533.989136,136.448318 
	C530.285095,132.581894 526.706970,128.594772 523.054565,124.310959 
	C528.768433,129.950470 534.503967,135.937103 540.354065,142.240921 
z"/>
<path fill="#1D663F" opacity="1.000000" stroke="none" 
	d="
M121.016708,521.370972 
	C124.919998,524.822876 128.922241,528.596924 132.942108,532.721252 
	C129.011703,529.278748 125.063690,525.485962 121.016708,521.370972 
z"/>
<path fill="#1D663F" opacity="1.000000" stroke="none" 
	d="
M133.213318,124.640564 
	C129.727737,128.531235 125.938026,132.553757 121.803902,136.464218 
	C125.276054,132.492249 129.092621,128.632309 133.213318,124.640564 
z"/>
<path fill="#1D663F" opacity="1.000000" stroke="none" 
	d="
M559.097168,329.542572 
	C558.833801,330.004333 558.667053,330.006439 558.250122,330.013428 
	C557.716064,326.035187 557.356140,322.055420 557.181885,318.067505 
	C557.100159,316.198792 557.376831,314.314423 557.997620,312.213684 
	C558.671387,311.992065 558.838684,311.993896 559.006042,311.995728 
	C559.068604,317.691437 559.131165,323.387177 559.097168,329.542572 
z"/>
<path fill="#1D663F" opacity="1.000000" stroke="none" 
	d="
M152.663635,112.356209 
	C148.481262,115.141647 143.957428,117.988747 139.057693,120.768829 
	C143.228592,117.940498 147.775375,115.179184 152.663635,112.356209 
z"/>
<path fill="#1E7047" opacity="1.000000" stroke="none" 
	d="
M558.000000,227.984131 
	C558.000000,223.304733 558.000000,218.625351 558.249329,213.476913 
	C558.498657,213.007874 558.997375,213.003250 558.997375,213.003250 
	C559.075439,217.745865 559.153503,222.488480 558.865601,227.611633 
	C558.499695,227.992172 558.000000,227.984131 558.000000,227.984131 
z"/>
<path fill="#1D663F" opacity="1.000000" stroke="none" 
	d="
M557.706055,228.279999 
	C558.000000,227.984131 558.499695,227.992172 558.749512,227.994781 
	C559.064331,232.694824 559.129333,237.392242 558.847046,242.549438 
	C558.499817,243.009216 558.000000,243.018311 558.000000,243.018311 
	C557.804016,238.204163 557.608032,233.390015 557.706055,228.279999 
z"/>
<path fill="#1E7047" opacity="1.000000" stroke="none" 
	d="
M558.000000,243.480927 
	C558.000000,243.018311 558.499817,243.009216 558.749756,243.007294 
	C559.075378,247.414566 559.151001,251.823746 558.862732,256.612000 
	C558.498901,256.991089 558.000000,256.981598 558.000000,256.981598 
	C558.000000,252.635574 558.000000,248.289551 558.000000,243.480927 
z"/>
<path fill="#1D663F" opacity="1.000000" stroke="none" 
	d="
M470.057678,103.569412 
	C466.135651,103.942818 462.035431,103.970833 457.468872,103.688904 
	C457.001251,102.969597 457.000031,102.560249 456.998810,102.150894 
	C461.292358,102.508606 465.585907,102.866318 470.057678,103.569412 
z"/>
<path fill="#1E7047" opacity="1.000000" stroke="none" 
	d="
M512.144348,116.356598 
	C508.934113,115.066437 505.522430,113.515091 502.052490,111.626511 
	C505.310455,112.891335 508.626678,114.493370 512.144348,116.356598 
z"/>
<path fill="#1E7047" opacity="1.000000" stroke="none" 
	d="
M489.694824,106.833206 
	C486.602905,106.689621 483.212921,106.351028 479.417633,105.780052 
	C479.012329,105.547676 478.997253,105.102341 478.997253,105.102341 
	C482.463745,105.614296 485.930267,106.126251 489.694824,106.833206 
z"/>
<path fill="#1B673B" opacity="1.000000" stroke="none" 
	d="
M456.625488,102.053947 
	C457.000031,102.560249 457.001251,102.969597 457.003693,103.685814 
	C451.648743,103.994385 446.292572,103.996101 440.469086,103.995682 
	C444.453827,103.545395 448.905884,103.097229 453.658386,102.371048 
	C454.723236,102.047691 455.487732,102.002342 456.625488,102.053947 
z"/>
<path fill="#1E7047" opacity="1.000000" stroke="none" 
	d="
M500.762817,110.726448 
	C497.730713,109.946068 494.442780,108.931877 491.075928,107.586121 
	C494.166992,108.333908 497.337036,109.413269 500.762817,110.726448 
z"/>
<path fill="#1D663F" opacity="1.000000" stroke="none" 
	d="
M559.093628,438.560913 
	C558.997620,439.003143 558.498779,439.008636 558.249390,439.013489 
	C557.809753,436.191406 557.619568,433.364532 557.714783,430.259613 
	C558.000244,429.981598 558.499512,429.991150 558.749146,429.994171 
	C559.062439,432.704376 559.126038,435.411530 559.093628,438.560913 
z"/>
<path fill="#1D663F" opacity="1.000000" stroke="none" 
	d="
M557.717651,257.252380 
	C558.000000,256.981598 558.498901,256.991089 558.748413,256.994019 
	C559.063599,259.374084 559.129272,261.751221 559.098633,264.564697 
	C558.835510,265.003754 558.668762,265.006439 558.251953,265.015442 
	C557.813049,262.522217 557.624146,260.022675 557.717651,257.252380 
z"/>
<path fill="#1D663F" opacity="1.000000" stroke="none" 
	d="
M557.998657,298.403656 
	C558.166992,297.985901 558.333984,297.988892 558.751465,297.994995 
	C559.066589,301.036011 559.131226,304.073883 558.849121,307.560608 
	C558.334900,308.012787 558.167419,308.016144 558.000000,308.019531 
	C557.999084,304.954498 557.998230,301.889435 557.998657,298.403656 
z"/>
<path fill="#1D663F" opacity="1.000000" stroke="none" 
	d="
M559.094849,212.573669 
	C558.997375,213.003250 558.498657,213.007874 558.249329,213.011871 
	C557.815247,210.844345 557.630493,208.672821 557.724121,206.239151 
	C558.170288,205.981506 558.338074,205.985992 558.757568,205.995468 
	C559.070374,208.048325 559.131348,210.096222 559.094849,212.573669 
z"/>
<path fill="#1D663F" opacity="1.000000" stroke="none" 
	d="
M513.764893,540.413818 
	C515.200500,539.097229 516.954224,537.680054 519.065063,536.407593 
	C517.642456,537.805969 515.862793,539.059570 513.764893,540.413818 
z"/>
<path fill="#1D663F" opacity="1.000000" stroke="none" 
	d="
M117.155045,141.779449 
	C116.337181,143.594604 115.276184,145.612518 113.844284,147.590317 
	C114.619560,145.694214 115.765732,143.838226 117.155045,141.779449 
z"/>
<path fill="#1D663F" opacity="1.000000" stroke="none" 
	d="
M121.044693,136.724075 
	C120.268181,138.236664 119.238060,139.924026 117.838837,141.540924 
	C118.576859,139.946579 119.683975,138.422714 121.044693,136.724075 
z"/>
<path fill="#1B673B" opacity="1.000000" stroke="none" 
	d="
M478.630341,104.911835 
	C478.997253,105.102341 479.012329,105.547676 479.017761,105.770332 
	C476.527496,105.532158 474.031830,105.071327 471.278839,104.343430 
	C473.435516,104.291344 475.849457,104.506332 478.630341,104.911835 
z"/>
<path fill="#1D663F" opacity="1.000000" stroke="none" 
	d="
M519.784180,536.397095 
	C520.753540,535.346008 522.020325,534.178955 523.656250,533.012634 
	C522.710815,534.102661 521.396179,535.191895 519.784180,536.397095 
z"/>
<path fill="#1E7047" opacity="1.000000" stroke="none" 
	d="
M558.000000,308.415466 
	C558.167419,308.016144 558.334900,308.012787 558.753540,308.006836 
	C559.079895,309.155334 559.154968,310.306366 559.118042,311.726562 
	C558.838684,311.993896 558.671387,311.992065 558.253296,311.984741 
	C558.001648,310.923309 558.000793,309.867340 558.000000,308.415466 
z"/>
<path fill="#1E7047" opacity="1.000000" stroke="none" 
	d="
M515.872314,118.686417 
	C514.820618,118.406532 513.584412,117.860336 512.323120,116.945023 
	C513.427979,117.190636 514.557861,117.805359 515.872314,118.686417 
z"/>
<path fill="#1D663F" opacity="1.000000" stroke="none" 
	d="
M534.305664,522.996765 
	C534.607849,522.127075 535.225403,521.261536 536.186462,520.484131 
	C535.893677,521.381897 535.257324,522.191406 534.305664,522.996765 
z"/>
<path fill="#1E7047" opacity="1.000000" stroke="none" 
	d="
M518.878174,120.696556 
	C518.067322,120.522820 517.093323,120.085114 516.080627,119.295029 
	C516.932922,119.439293 517.824036,119.935936 518.878174,120.696556 
z"/>
<path fill="#1D663F" opacity="1.000000" stroke="none" 
	d="
M554.357300,485.039368 
	C554.225098,484.233765 554.351562,483.324463 554.754395,482.200195 
	C554.892578,482.968719 554.754272,483.952148 554.357300,485.039368 
z"/>
<path fill="#1E7047" opacity="1.000000" stroke="none" 
	d="
M521.177917,122.404678 
	C520.586670,122.325989 519.853271,121.988495 519.078247,121.304016 
	C519.703003,121.353302 520.369385,121.749588 521.177917,122.404678 
z"/>
<path fill="#1D663F" opacity="1.000000" stroke="none" 
	d="
M555.428955,481.029449 
	C555.184204,479.994385 555.285400,478.763367 555.652588,477.273865 
	C555.870667,478.288055 555.822815,479.560791 555.428955,481.029449 
z"/>
<path fill="#1D663F" opacity="1.000000" stroke="none" 
	d="
M136.652573,121.972618 
	C136.414093,122.536346 135.883469,123.167465 134.999252,123.726395 
	C135.217255,123.116142 135.788834,122.578079 136.652573,121.972618 
z"/>
<path fill="#1D663F" opacity="1.000000" stroke="none" 
	d="
M524.303955,532.931396 
	C524.443787,532.378784 524.875732,531.733887 525.625366,531.043213 
	C525.494019,531.611389 525.045044,532.225281 524.303955,532.931396 
z"/>
<path fill="#1D663F" opacity="1.000000" stroke="none" 
	d="
M119.638641,519.620972 
	C120.001610,519.704224 120.455872,520.063538 120.929138,520.753174 
	C120.542061,520.687988 120.136002,520.292542 119.638641,519.620972 
z"/>
<path fill="#1E7047" opacity="1.000000" stroke="none" 
	d="
M522.894287,123.712479 
	C522.478149,123.727982 521.921265,123.490356 521.312500,122.936859 
	C521.758301,122.900444 522.255920,123.179901 522.894287,123.712479 
z"/>
<path fill="#1D663F" opacity="1.000000" stroke="none" 
	d="
M138.488312,120.696983 
	C138.373703,121.054634 137.968262,121.484009 137.234161,121.926407 
	C137.336166,121.549194 137.766830,121.158951 138.488312,120.696983 
z"/>
<path fill="#1D663F" opacity="1.000000" stroke="none" 
	d="
M134.453033,123.688118 
	C134.521149,123.945869 134.340668,124.275215 133.855927,124.568237 
	C133.769272,124.274513 133.986877,124.017113 134.453033,123.688118 
z"/>
<path fill="#FEFEFE" opacity="1.000000" stroke="none" 
	d="
M418.872192,382.452728 
	C418.853607,387.243896 418.835968,392.035065 418.816345,396.826233 
	C418.766052,409.114594 413.935852,416.224792 401.808044,420.949585 
	C398.557281,421.235138 396.068390,421.385162 393.579590,421.383392 
	C348.726776,421.351685 303.873932,421.301605 259.021118,421.255493 
	C247.122940,418.389648 239.108963,411.629913 236.660904,398.365662 
	C236.465500,386.811798 236.408630,376.012451 236.419708,365.213196 
	C236.457428,328.496033 236.519150,291.778839 236.571701,255.061676 
	C239.709183,242.609711 247.337982,234.990631 261.087646,232.921234 
	C264.582001,232.736359 267.238831,232.645538 269.895752,232.643753 
	C312.920044,232.615051 355.944366,232.597656 398.968658,232.577698 
	C413.651245,237.692734 418.813293,244.995834 418.783661,260.728363 
	C418.776520,264.519470 418.606171,268.310272 417.831726,272.357788 
	C388.352539,272.585754 359.552429,272.517181 330.752716,272.596680 
	C328.175201,272.603790 325.600281,273.570404 322.739929,274.089203 
	C321.848755,274.519958 321.241821,274.952911 320.634918,275.385895 
	C320.634918,275.385895 320.541687,275.480560 320.167084,275.607269 
	C314.547943,279.549530 312.200775,284.796143 312.199493,291.182007 
	C312.194794,315.129211 311.997253,339.079803 312.393738,363.020447 
	C312.462219,367.154755 315.065643,371.247070 316.498169,375.358795 
	C316.498169,375.358795 316.585846,375.420135 316.649719,375.658264 
	C316.844269,376.145416 317.048309,376.292755 317.325745,376.338440 
	C317.325745,376.338440 317.446014,376.551270 317.601715,376.775940 
	C317.889984,377.208252 318.079041,377.321716 318.324554,377.341064 
	C318.324554,377.341064 318.441467,377.505127 318.680237,377.822571 
	C319.954620,378.736206 320.990265,379.332397 322.325012,380.177979 
	C326.001343,381.027649 329.374939,382.125122 332.756409,382.150024 
	C361.460846,382.361603 390.166718,382.377899 418.872192,382.452728 
z"/>
<path fill="#FCFDFC" opacity="1.000000" stroke="none" 
	d="
M423.215820,356.850189 
	C420.411041,359.581329 417.606232,362.312439 414.091919,365.261475 
	C388.309448,365.474213 363.236450,365.469086 338.163483,365.463928 
	C338.163483,365.463928 338.222076,365.642700 338.040100,365.352081 
	C336.326050,364.267853 334.793915,363.474243 333.261780,362.680664 
	C333.261780,362.680664 333.201263,362.804993 333.163452,362.533234 
	C332.819336,362.064514 332.513062,361.867523 332.206787,361.670563 
	C332.206787,361.670563 332.173309,361.845551 332.172791,361.549652 
	C331.780457,360.840240 331.388611,360.426697 330.996796,360.013184 
	C330.996796,360.013184 331.001526,360.000305 330.900726,359.628021 
	C330.266510,356.530365 329.296875,353.809052 329.271576,351.078979 
	C329.124359,335.189117 329.153900,319.296936 329.241150,303.406189 
	C329.256378,300.629364 329.829651,297.855560 330.145203,295.080383 
	C330.145203,295.080383 330.053131,295.053589 330.327026,294.917236 
	C330.871338,294.223114 331.141785,293.665375 331.412231,293.107605 
	C331.916595,292.657959 332.420990,292.208344 333.306793,291.395630 
	C333.984344,290.719421 334.280518,290.406250 334.576660,290.093109 
	C335.007721,289.964142 335.438812,289.835175 336.283203,289.461060 
	C337.235657,288.944885 337.774719,288.673859 338.313812,288.402863 
	C338.313812,288.402863 338.154053,288.315948 338.622620,288.381287 
	C363.419189,288.372375 387.747192,288.287689 412.075226,288.252594 
	C413.382965,288.250702 414.691284,288.665497 415.999329,288.886322 
	C418.337891,291.349335 420.676422,293.812347 423.257111,296.984497 
	C423.596130,305.816132 423.814789,313.939453 423.760834,322.060974 
	C423.683807,333.658081 423.407196,345.253845 423.215820,356.850189 
M351.692932,330.545868 
	C353.577118,338.121338 358.435852,342.774963 366.067413,343.826813 
	C372.706482,344.741852 378.164581,341.930359 381.726715,336.238556 
	C385.487305,330.229553 385.445831,323.924683 381.723663,317.886566 
	C377.667114,311.306091 369.803802,308.559753 362.659393,310.941254 
	C354.737335,313.582031 350.864899,320.115723 351.692932,330.545868 
z"/>
<path fill="#085829" opacity="1.000000" stroke="none" 
	d="
M259.146667,421.626038 
	C303.873932,421.301605 348.726776,421.351685 393.579590,421.383392 
	C396.068390,421.385162 398.557281,421.235138 401.514343,421.158020 
	C400.648132,421.770691 399.314758,422.911865 397.979065,422.914642 
	C352.945831,423.008179 307.912384,423.001129 262.878998,422.952545 
	C261.676392,422.951233 260.474457,422.329163 259.146667,421.626038 
z"/>
<path fill="#085829" opacity="1.000000" stroke="none" 
	d="
M398.825195,232.223343 
	C355.944366,232.597656 312.920044,232.615051 269.895752,232.643753 
	C267.238831,232.645538 264.582001,232.736359 261.455597,232.762329 
	C262.074524,232.160599 263.158203,231.089828 264.252136,231.079285 
	C276.726807,230.959045 289.203033,230.999283 301.678864,230.998993 
	C332.286194,230.998291 362.893585,230.984726 393.500824,231.035995 
	C395.228271,231.038895 396.954773,231.578934 398.825195,232.223343 
z"/>
<path fill="#46795A" opacity="1.000000" stroke="none" 
	d="
M316.591461,374.977783 
	C315.065643,371.247070 312.462219,367.154755 312.393738,363.020447 
	C311.997253,339.079803 312.194794,315.129211 312.199493,291.182007 
	C312.200775,284.796143 314.547943,279.549530 320.107697,275.637115 
	C319.914185,276.513428 319.594910,277.668518 318.864716,278.429077 
	C315.199860,282.246246 313.878235,286.830383 313.885986,292.000732 
	C313.921844,315.904053 313.785919,339.808685 314.027191,363.709625 
	C314.063934,367.347229 315.757477,370.968109 316.591461,374.977783 
z"/>
<path fill="#11643B" opacity="1.000000" stroke="none" 
	d="
M418.851166,382.022064 
	C390.166718,382.377899 361.460846,382.361603 332.756409,382.150024 
	C329.374939,382.125122 326.001343,381.027649 322.316345,379.938385 
	C322.008606,379.449402 321.949615,378.973633 321.949615,378.973633 
	C326.893890,379.316589 331.837097,379.936768 336.782623,379.955963 
	C362.399231,380.055450 388.016541,379.970612 413.633148,380.069244 
	C415.367401,380.075897 417.097931,381.061218 418.851166,382.022064 
z"/>
<path fill="#085829" opacity="1.000000" stroke="none" 
	d="
M236.177902,255.250244 
	C236.519150,291.778839 236.457428,328.496033 236.419708,365.213196 
	C236.408630,376.012451 236.465500,386.811798 236.462326,398.042908 
	C235.973969,398.442780 235.118195,398.439667 235.113480,398.374756 
	C235.017365,397.051483 235.002777,395.721191 235.002701,394.392303 
	C234.999969,349.831299 234.991547,305.270325 235.033600,260.709351 
	C235.035248,258.952271 235.522903,257.195648 236.177902,255.250244 
z"/>
<path fill="#155A33" opacity="1.000000" stroke="none" 
	d="
M323.024170,274.091400 
	C325.600281,273.570404 328.175201,272.603790 330.752716,272.596680 
	C359.552429,272.517181 388.352539,272.585754 417.623138,272.696655 
	C416.240936,273.186188 414.389191,273.942749 412.535217,273.948212 
	C386.067627,274.025818 359.599640,273.968994 333.132050,274.046387 
	C330.014435,274.055481 326.898560,274.667175 323.395630,274.782043 
	C323.009399,274.564545 323.024170,274.091400 323.024170,274.091400 
z"/>
<path fill="#155A33" opacity="1.000000" stroke="none" 
	d="
M415.893372,288.499756 
	C414.691284,288.665497 413.382965,288.250702 412.075226,288.252594 
	C387.747192,288.287689 363.419189,288.372375 338.632690,288.471649 
	C339.425476,287.997498 340.675171,287.067566 341.928314,287.062897 
	C365.365967,286.976044 388.804108,286.982819 412.241943,287.046387 
	C413.424713,287.049591 414.605621,287.741791 415.893372,288.499756 
z"/>
<path fill="#085829" opacity="1.000000" stroke="none" 
	d="
M338.322571,365.874603 
	C363.236450,365.469086 388.309448,365.474213 413.894653,365.487427 
	C413.087524,365.996155 411.769714,366.928467 410.448547,366.933289 
	C387.227020,367.017700 364.005035,366.995544 340.783234,366.955139 
	C340.015625,366.953827 339.248840,366.518372 338.322571,365.874603 
z"/>
<path fill="#1B673B" opacity="1.000000" stroke="none" 
	d="
M329.734161,295.131989 
	C329.829651,297.855560 329.256378,300.629364 329.241150,303.406189 
	C329.153900,319.296936 329.124359,335.189117 329.271576,351.078979 
	C329.296875,353.809052 330.266510,356.530365 330.894714,359.628815 
	C329.991455,358.328461 328.143646,356.664246 328.125397,354.980225 
	C327.920166,336.017914 327.976501,317.052460 328.052795,298.088226 
	C328.056702,297.118347 328.880859,296.151733 329.734161,295.131989 
z"/>
<path fill="#155A33" opacity="1.000000" stroke="none" 
	d="
M423.644012,356.723572 
	C423.407196,345.253845 423.683807,333.658081 423.760834,322.060974 
	C423.814789,313.939453 423.596130,305.816132 423.467712,297.190369 
	C423.955200,297.984619 424.918976,299.279724 424.926178,300.580109 
	C425.024902,318.353638 425.004761,336.127960 424.951385,353.901886 
	C424.948669,354.801117 424.378296,355.698669 423.644012,356.723572 
z"/>
<path fill="#1B673B" opacity="1.000000" stroke="none" 
	d="
M333.221741,363.063171 
	C334.793915,363.474243 336.326050,364.267853 338.093262,365.274475 
	C336.612823,364.806885 334.897278,364.126251 333.221741,363.063171 
z"/>
<path fill="#1B673B" opacity="1.000000" stroke="none" 
	d="
M200.435699,103.997070 
	C202.160019,103.808060 204.321960,103.621841 206.741180,103.714600 
	C204.956757,103.995667 202.915039,103.997765 200.435699,103.997070 
z"/>
<path fill="#1B673B" opacity="1.000000" stroke="none" 
	d="
M285.438721,103.995651 
	C287.162201,103.807518 289.322906,103.621559 291.740845,103.714478 
	C289.957367,103.994850 287.916687,103.996338 285.438721,103.995651 
z"/>
<path fill="#46795A" opacity="1.000000" stroke="none" 
	d="
M321.765442,378.687317 
	C321.949615,378.973633 322.008606,379.449402 322.017242,379.688995 
	C320.990265,379.332397 319.954620,378.736206 318.761566,377.882019 
	C319.596527,377.882965 320.588898,378.141968 321.765442,378.687317 
z"/>
<path fill="#1D663F" opacity="1.000000" stroke="none" 
	d="
M557.005249,199.377975 
	C557.340271,200.406113 557.671997,201.823166 557.999878,203.630295 
	C557.664612,202.602539 557.333252,201.184708 557.005249,199.377975 
z"/>
<path fill="#1D663F" opacity="1.000000" stroke="none" 
	d="
M557.739075,411.195953 
	C558.000427,412.057800 558.001770,413.134552 558.000732,414.615448 
	C557.825256,413.816681 557.652222,412.613770 557.739075,411.195953 
z"/>
<path fill="#46795A" opacity="1.000000" stroke="none" 
	d="
M322.739929,274.089203 
	C323.024170,274.091400 323.009399,274.564545 322.967834,274.798004 
	C322.360077,275.235687 321.793884,275.439941 320.931305,275.515015 
	C321.241821,274.952911 321.848755,274.519958 322.739929,274.089203 
z"/>
<path fill="#1D663F" opacity="1.000000" stroke="none" 
	d="
M557.738037,458.191040 
	C557.844482,458.850739 557.689087,459.721069 557.271790,460.800812 
	C557.165344,460.140717 557.320801,459.271179 557.738037,458.191040 
z"/>
<path fill="#1B673B" opacity="1.000000" stroke="none" 
	d="
M330.375977,103.994949 
	C330.878113,103.826843 331.754883,103.661041 332.815094,103.743889 
	C332.249237,103.994118 331.499939,103.995682 330.375977,103.994949 
z"/>
<path fill="#1B673B" opacity="1.000000" stroke="none" 
	d="
M274.249390,103.994766 
	C274.164368,103.562584 274.329956,103.131836 274.495544,102.701088 
	C274.653259,102.965118 274.810974,103.229149 274.984955,103.743286 
	C274.834137,103.994331 274.667084,103.995262 274.249390,103.994766 
z"/>
<path fill="#1B673B" opacity="1.000000" stroke="none" 
	d="
M337.973938,288.306091 
	C337.774719,288.673859 337.235657,288.944885 336.389313,289.254517 
	C336.599396,288.931824 337.116699,288.570587 337.973938,288.306091 
z"/>
<path fill="#1B673B" opacity="1.000000" stroke="none" 
	d="
M331.035248,360.327454 
	C331.388611,360.426697 331.780457,360.840240 332.259705,361.530151 
	C331.922638,361.418274 331.498169,361.029999 331.035248,360.327454 
z"/>
<path fill="#1B673B" opacity="1.000000" stroke="none" 
	d="
M331.090759,293.215210 
	C331.141785,293.665375 330.871338,294.223114 330.346436,294.961060 
	C330.317719,294.535156 330.543488,293.928986 331.090759,293.215210 
z"/>
<path fill="#1B673B" opacity="1.000000" stroke="none" 
	d="
M178.294922,105.980522 
	C178.467072,105.681671 178.937790,105.363487 179.707306,105.027161 
	C179.535217,105.326401 179.064362,105.643791 178.294922,105.980522 
z"/>
<path fill="#46795A" opacity="1.000000" stroke="none" 
	d="
M318.388123,377.111267 
	C318.079041,377.321716 317.889984,377.208252 317.706848,376.838226 
	C317.656311,376.675812 318.114105,376.547943 318.114105,376.547943 
	C318.114105,376.547943 318.451721,376.881470 318.388123,377.111267 
z"/>
<path fill="#46795A" opacity="1.000000" stroke="none" 
	d="
M317.389343,376.097778 
	C317.048309,376.292755 316.844269,376.145416 316.673431,375.706238 
	C317.021027,375.355591 317.294250,375.469238 317.389343,376.097778 
z"/>
<path fill="#1B673B" opacity="1.000000" stroke="none" 
	d="
M332.266754,361.962341 
	C332.513062,361.867523 332.819336,362.064514 333.231354,362.520325 
	C333.000305,362.604126 332.663513,362.429108 332.266754,361.962341 
z"/>
<path fill="#1D663F" opacity="1.000000" stroke="none" 
	d="
M557.999268,355.242065 
	C558.110718,355.265839 558.221497,355.547577 558.166138,355.922577 
	C557.999451,355.843903 557.998962,355.671967 557.999268,355.242065 
z"/>
<path fill="#1B673B" opacity="1.000000" stroke="none" 
	d="
M334.247864,290.176636 
	C334.280518,290.406250 333.984344,290.719421 333.383270,291.150238 
	C333.358582,290.932007 333.638824,290.596069 334.247864,290.176636 
z"/>
<path fill="#1B673B" opacity="1.000000" stroke="none" 
	d="
M186.217499,104.889687 
	C186.098663,104.674339 186.284164,104.416405 186.771210,104.112991 
	C186.895706,104.330971 186.712067,104.590843 186.217499,104.889687 
z"/>
<path fill="#1E7047" opacity="1.000000" stroke="none" 
	d="
M351.599976,330.151825 
	C350.864899,320.115723 354.737335,313.582031 362.659393,310.941254 
	C369.803802,308.559753 377.667114,311.306091 381.723663,317.886566 
	C385.445831,323.924683 385.487305,330.229553 381.726715,336.238556 
	C378.164581,341.930359 372.706482,344.741852 366.067413,343.826813 
	C358.435852,342.774963 353.577118,338.121338 351.599976,330.151825 
z"/>
</svg>