<?xml version="1.0" encoding="UTF-8"?>
<svg width="240" height="240" viewBox="0 0 240 240" fill="none" xmlns="http://www.w3.org/2000/svg">
  <!-- AI Brain Circle -->
  <circle cx="120" cy="100" r="60" fill="white" opacity="0.2"/>
  
  <!-- Brain Outline -->
  <path d="M90 90 C90 70 110 60 120 60 C130 60 150 70 150 90 C150 110 130 120 120 120 C110 120 90 110 90 90Z" stroke="white" stroke-width="3" fill="none"/>
  <path d="M120 120 L120 140" stroke="white" stroke-width="3"/>
  
  <!-- Neural Network Connections -->
  <circle cx="100" cy="80" r="6" fill="#007A39"/>
  <circle cx="110" cy="100" r="6" fill="#007A39"/>
  <circle cx="130" cy="100" r="6" fill="#007A39"/>
  <circle cx="140" cy="80" r="6" fill="#007A39"/>
  <circle cx="105" cy="70" r="6" fill="#007A39"/>
  <circle cx="135" cy="70" r="6" fill="#007A39"/>
  
  <line x1="100" y1="80" x2="110" y2="100" stroke="white" stroke-width="2"/>
  <line x1="110" y1="100" x2="130" y2="100" stroke="white" stroke-width="2"/>
  <line x1="130" y1="100" x2="140" y2="80" stroke="white" stroke-width="2"/>
  <line x1="105" y1="70" x2="100" y2="80" stroke="white" stroke-width="2"/>
  <line x1="105" y1="70" x2="135" y2="70" stroke="white" stroke-width="2"/>
  <line x1="135" y1="70" x2="140" y2="80" stroke="white" stroke-width="2"/>
  
  <!-- Recommendation Bubbles -->
  <rect x="60" y="140" width="80" height="30" rx="15" fill="#007A39" opacity="0.7"/>
  <text x="70" y="160" font-family="Arial" font-size="12" fill="white">Save 20%</text>
  
  <rect x="150" y="140" width="60" height="30" rx="15" fill="#007A39" opacity="0.9"/>
  <text x="155" y="160" font-family="Arial" font-size="12" fill="white">Invest</text>
  
  <rect x="80" y="180" width="90" height="30" rx="15" fill="#007A39" opacity="0.8"/>
  <text x="85" y="200" font-family="Arial" font-size="12" fill="white">Reduce debt</text>
  
  <!-- AI Pulse Animation -->
  <path d="M40 120 L60 120 L70 100 L90 140 L110 110 L130 125 L150 115 L170 120 L200 120" 
        stroke="white" stroke-width="3" stroke-linecap="round" fill="none"/>
</svg>
